<svg width="129" height="75" viewBox="0 0 129 75" fill="none" xmlns="http://www.w3.org/2000/svg">
<path d="M108 39C108 52.8071 96.8071 64 83 64C69.1929 64 58 52.8071 58 39C58 25.1929 69.1929 14 83 14C96.8071 14 108 25.1929 108 39Z" fill="#3BB77E"/>
<path d="M34 39C34 43.9706 29.9706 48 25 48C20.0294 48 16 43.9706 16 39C16 34.0294 20.0294 30 25 30C29.9706 30 34 34.0294 34 39Z" fill="#3BB77E"/>
<path d="M33.1034 39L32.6782 36.875L31.8276 34.75L31.4023 33.9L30.5517 33.05L29.7011 32.2L28 30.5L34.8046 33.9L36.5057 34.325L38.2069 34.75L40.3333 35.175H42.0345H44.1609L45.8621 34.75L47.5632 34.325L50.1149 33.475L52.6667 32.2L55.2184 30.5L57.7701 28.375L60.3218 26.25L65 22L61.1724 27.95L59.8966 31.35L59.046 34.75L58.6207 39L59.046 43.25L59.8966 46.65L61.1724 50.05L65 56L59.8966 51.75L57.7701 50.05L55.2184 48.35L52.6667 47.075L50.1149 45.8L47.5632 44.525L45.8621 44.1L44.1609 43.675H42.0345H40.3333L38.2069 44.1L36.5057 44.525L34.8046 44.95L28 47.5L29.7011 45.8L30.5517 44.95L31.4023 44.1L31.8276 43.25L32.6782 41.125L33.1034 39Z" fill="#3BB77E"/>
<circle cx="25" cy="39" r="7" fill="#D9D9D9"/>
</svg>
